<svg xmlns="http://www.w3.org/2000/svg" viewBox="0 0 32 32">
    <path id="android" d="M6.94294,11.1035a1.54649,1.54649,0,0,0-1.54611,1.54614l.00113,6.4751a1.54611,1.54611,0,1,0,3.09222.00007l.0001-6.476A1.54685,1.54685,0,0,0,6.94294,11.1035M19.41218,5.28887,20.49138,3.318a.21429.21429,0,1,0-.37556-.20648L19.02573,5.10294A7.53456,7.53456,0,0,0,12.97311,5.1L11.88189,3.1138a.214.214,0,1,0-.3756.205L12.586,5.28821a6.3152,6.3152,0,0,0-3.55362,5.5694l13.92838-.00143a6.31782,6.31782,0,0,0-3.54861-5.56731M12.828,8.33431a.58407.58407,0,1,1,.58509-.58367.58392.58392,0,0,1-.58509.58367M19.17,8.33318a.5845.5845,0,1,1,.583-.5835.58364.58364,0,0,1-.583.5835M9.08929,11.39545l.00236,10.03466a1.64765,1.64765,0,0,0,1.64984,1.64968l1.1234.00047.00129,3.42607a1.546,1.546,0,1,0,3.09193-.00106l-.00086-3.42541,2.08753-.0004.00086,3.42594a1.54625,1.54625,0,1,0,3.0925-.00139l-.00094-3.425,1.12729-.00086a1.6504,1.6504,0,0,0,1.65061-1.65021l-.00173-10.03483ZM26.602,12.64729a1.54595,1.54595,0,1,0-3.09189.00079l.00106,6.4752a1.546,1.546,0,1,0,3.092-.00066Z" fill="#262626"/>
</svg>
