<svg xmlns="http://www.w3.org/2000/svg" viewBox="0 0 32 32">
    <path id="reddit" d="M20.46666,17.33365A1.33333,1.33333,0,1,1,19.13334,16,1.33481,1.33481,0,0,1,20.46666,17.33365ZM14.6,17.33349a1.33334,1.33334,0,1,0-1.33277,1.33307A1.3347,1.3347,0,0,0,14.6,17.33349Zm4.27978,3.03417a4.19588,4.19588,0,0,1-2.67824.77735,4.19116,4.19116,0,0,1-2.677-.77714.34553.34553,0,0,0-.48872.48859,4.91474,4.91474,0,0,0,3.16569.97959,4.91956,4.91956,0,0,0,3.16656-.97941.34553.34553,0,1,0-.48832-.489ZM28,7V25a3,3,0,0,1-3,3H7a3,3,0,0,1-3-3V7A3,3,0,0,1,7,4H25A3,3,0,0,1,28,7Zm-3.26875,9a1.86531,1.86531,0,0,0-3.16133-1.3429,9.13805,9.13805,0,0,0-4.992-1.58374l.85037-4.00056,2.77812.59056a1.33512,1.33512,0,1,0,.13647-.6525l-3.10209-.65943a.33334.33334,0,0,0-.39532.25679l-.9496,4.46392a9.16684,9.16684,0,0,0-5.06531,1.58158A1.86559,1.86559,0,1,0,8.7758,17.70206a3.67853,3.67853,0,0,0-.04455.5646c0,2.87187,3.34293,5.2,7.46666,5.2s7.46668-2.32814,7.46668-5.2a3.67764,3.67764,0,0,0-.04389-.56092A1.866,1.866,0,0,0,24.73125,16Z" fill="#262626"/>
</svg>
