<svg xmlns="http://www.w3.org/2000/svg" viewBox="0 0 32 32">
    <path id="google-plus" d="M31.88333,14.9025H28.62376V11.64293H26.17908V14.9025H22.91951v2.44469h3.25957v3.25957h2.44468V17.34719h3.25957ZM13.14078,18.08059v-3.0314h7.62741a7.094,7.094,0,0,1,.20372,1.67053c0,4.653-3.121,7.96151-7.823,7.96151a8.14894,8.14894,0,0,1,0-16.29787,7.80069,7.80069,0,0,1,5.45164,2.12687l-2.3143,2.24911a4.47909,4.47909,0,0,0-3.13734-1.206,4.988,4.988,0,0,0,0,9.9743,4.22246,4.22246,0,0,0,4.48192-3.43885H13.14078Z" fill="#262626"/>
</svg>
