<svg xmlns="http://www.w3.org/2000/svg" viewBox="0 0 32 32">
    <path id="skype" d="M16.04582,23.22c-3.98789,0-5.80956-2.02989-5.80956-3.5213a1.29022,1.29022,0,0,1,1.365-1.2911c1.70593,0,1.26188,2.55929,4.44459,2.55929,1.62891,0,2.583-.98017,2.583-1.89952,0-.5535-.31723-1.16863-1.38987-1.43767l-3.54579-.89881c-2.85522-.72574-3.35577-2.31473-3.35577-3.78718,0-3.05866,2.79555-4.16408,5.46032-4.16408,2.453,0,5.36946,1.35353,5.36946,3.189a1.27185,1.27185,0,0,1-1.42582,1.21406c-1.45624,0-1.21366-2.04806-4.14631-2.04806-1.45624,0-2.22386.68151-2.22386,1.63956,0,.95529,1.12634,1.27965,2.12429,1.51037l2.6241.59181c2.875.64951,3.64378,2.3349,3.64378,3.94009,0,2.48541-1.9248,4.4035-5.71753,4.4035m11.00877-5.25963a11.40565,11.40565,0,0,0,.16908-1.96075A11.22981,11.22981,0,0,0,14.05031,4.88142,6.60377,6.60377,0,0,0,10.74156,4,6.72032,6.72032,0,0,0,4.94541,14.03964,11.23707,11.23707,0,0,0,17.94969,27.1182a6.60438,6.60438,0,0,0,3.308.8818,6.72032,6.72032,0,0,0,5.79694-10.03964" fill="#262626"/>
</svg>
