<svg xmlns="http://www.w3.org/2000/svg" viewBox="0 0 32 32">
    <path id="foursquare" d="M22.13605,7.57424l-.64986,2.92438a.76621.76621,0,0,1-.64986.64987c-.40886-.04453-5.24361-.04453-5.19891,0a1.052,1.052,0,0,0-1.13726.97479v.64986a1.19313,1.19313,0,0,0,1.13726,1.13726c-.0447-.04124,3.95031-.04124,4.38657,0a.65247.65247,0,0,1,.64986.81233c-.09191.42-.55157,2.68633-.64986,2.92438a.78084.78084,0,0,1-.64986.64987,27.47633,27.47633,0,0,0-3.57424,0c-.79423-.05314-.95566-.04794-1.46219.48739-.37066.55688-4.3125,5.49562-4.38657,5.52383.03419.01775,0,.00443,0,0V7.41178a.69892.69892,0,0,1,.64986-.64986h10.8852A.69235.69235,0,0,1,22.13605,7.57424ZM9.62619,4a2.2329,2.2329,0,0,0-2.437,2.27452V27.39505c0,1.122.53116,1.41763.81233,1.46219a1.3553,1.3553,0,0,0,1.62465-.32494c.00831.056,6.38043-7.33386,6.49863-7.47341.08708-.08824.14828-.08938.16247-.16247a35.62461,35.62461,0,0,0,4.06164,0,2.05592,2.05592,0,0,0,2.27451-1.78712c.12539-.64937,1.89935-9.20624,2.437-11.86.45224-2.13259-.07729-3.24915-2.112-3.24931C23.01172,4.00016,11.439,4,9.62619,4Z" fill="#262626" fill-rule="evenodd"/>

</svg>
