<svg xmlns="http://www.w3.org/2000/svg" viewBox="0 0 32 32">
    <path id="vimeo" d="M28.55,9.9464q-.17367,3.80365-5.30263,10.41516-5.30233,6.90522-8.9723,6.90514-2.27262,0-3.84545-4.20534Q9.38,19.20647,8.33083,15.35146,7.16391,11.14771,5.82629,11.146A8.04187,8.04187,0,0,0,3.7859,12.373L2.56257,10.79406Q4.48742,9.09962,6.357,7.40377q2.567-2.22231,3.85229-2.33952,3.03546-.29211,3.7365,4.1575.7575,4.80112,1.05116,5.97064.87486,3.98322,1.92614,3.98151.8162,0,2.45148-2.5835a10.19177,10.19177,0,0,0,1.75069-3.93367q.23271-2.22995-1.75069-2.23185a4.86132,4.86132,0,0,0-1.92435.42721q1.91646-6.2903,7.32267-6.11409Q28.78029,4.85606,28.55,9.9464Z" fill="#262626"/>
</svg>
